<?xml version="1.0" standalone="yes"?>
<svg xmlns="http://www.w3.org/2000/svg" width="200" height="200">
<path style="fill:#46714d; stroke:none;" d="M0 0L0 83L1 83L3 71L2 71L2 73L1 73L2 68L3 70L4 70L3 65L4 65L5 67L6 63L5 63L5 65L4 65L11 54L13 45L16 45L15 42L18 42L18 41L16 42L16 41L18 38C22.5233 37.2102 23.5292 34.0403 25 30L41 17L39 20L60 8L58 6L65 4L65 5L63 5L63 6L83 1L57 0L0 0z"/>
<path style="fill:#01ffff; stroke:none;" d="M74.6667 0.333328L75.3333 0.666672L74.6667 0.333328z"/>
<path style="fill:#27a17b; stroke:none;" d="M76 0L77 1L76 0M61 5L62 7L58 6L58 7L60 8L38 20L38 19L41 18L41 17L37 19L23 33L16 42L18 41L18 42L15 42L16 45L13 45L11 54L8 54L8 55L10 54L10 55L7 62L4 65L5 65L5 63L6 63L5 67L4 65L3 65L4 70L3 70L3 68L2 68L0.606481 118L5 133L4 137L5 137L5 135L6 135L13 155L16 155L20 161L23 164L24 165L23 167L31 176L35 176C35.8289 180.75 39.257 183.002 44 183L45 187L46 187L45 185L46 185L53 191L56 190L56 193L60 192C60.4269 195.551 63.7116 196.145 67 197L67 196L65 196L65 195L111 199.996L131 198L135 195L135 196L133 196L133 197L137 196L135 195L135 194L139 195L138 193L139 193C142.087 193.506 143.632 193.223 144 190L147 191C147 187.572 152.902 185.918 156 186L158 183L157 185L165 176L177 167L180 164L181 163L180 161C185.967 158.08 187.326 152.027 189 146L192 146L192 145L190 146L190 145L193 138C198.541 137.267 197.09 129.193 197.894 125C200.47 111.563 201.883 95.6122 199.394 82C198.724 78.3408 198.514 67.4945 195 67L196 63L195 63L195 65L194 65L187 45L184 45L180 39L177 36L176 35L177 33L169 24L165 24C164.171 19.2499 160.743 16.9984 156 17L155 13L154 13L155 15L154 15L147 9L144 10L144 7L140 8C139.573 4.44923 136.288 3.85503 133 3L133 4L135 4L116 0.289352L88 0.0146637L61 5z"/>
<path style="fill:#46714d; stroke:none;" d="M117 0L117 1L135 5L135 4L132 4L132 3L142 6L140 7L140 8L146 8L144 9L144 10L147 9L155 15L154 13L155 13L156 17C160.404 17.0812 163.735 19.7833 165 24L169 24L173 31L176 35L177 36L180 39L186 45L184 44L184 45L187 45L195 67L196 67L196 65L197 65L199 73L198 73L198 71L197 71L199 83L200 83L200 0L117 0z"/>
<path style="fill:#27a17b; stroke:none;" d="M123 0L124 1L123 0z"/>
<path style="fill:#01ffff; stroke:none;" d="M124.667 0.333328L125.333 0.666672L124.667 0.333328z"/>
<path style="fill:#27a17b; stroke:none;" d="M71.6667 1.33333L72.3333 1.66667L71.6667 1.33333z"/>
<path style="fill:#01ffff; stroke:none;" d="M127 1L128 2L127 1z"/>
<path style="fill:#27a17b; stroke:none;" d="M128 1L129 2L128 1z"/>
<path style="fill:#01ffff; stroke:none;" d="M68 2L67 4L68 2z"/>
<path style="fill:#27a17b; stroke:none;" d="M69 2L70 3L69 2M130.667 2.33333L131.333 2.66667L130.667 2.33333M65.6667 3.33333L66.3333 3.66667L65.6667 3.33333z"/>
<path style="fill:#01ffff; stroke:none;" d="M132 3L133 4L132 3M62.3333 4.66667L62.6667 5.33333L62.3333 4.66667z"/>
<path style="fill:#27a17b; stroke:none;" d="M63.6667 4.33333L64.3333 4.66667L63.6667 4.33333z"/>
<path style="fill:#01ffff; stroke:none;" d="M137 4L138 5L137 4M60.3333 5.66667L60.6667 6.33333L60.3333 5.66667z"/>
<path style="fill:#46714d; stroke:none;" d="M135 5L135 6L140 7L140 6L135 5M61 6L62 7L61 6z"/>
<path style="fill:#01ffff; stroke:none;" d="M141 6L142 7L141 6z"/>
<path style="fill:#27a17b; stroke:none;" d="M55 9L58 8L55 9z"/>
<path style="fill:#01ffff; stroke:none;" d="M54 8L55 9L54 8z"/>
<path style="fill:#46714d; stroke:none;" d="M142.667 8.33333L143.333 8.66667L142.667 8.33333z"/>
<path style="fill:#01ffff; stroke:none;" d="M145 8L146 9L145 8z"/>
<path style="fill:#27a17b; stroke:none;" d="M53 9L54 10L53 9z"/>
<path style="fill:#01ffff; stroke:none;" d="M45 13L43 16L45 13z"/>
<path style="fill:#27a17b; stroke:none;" d="M42 15L43 16L42 15z"/>
<path style="fill:#01ffff; stroke:none;" d="M156.667 15.3333L157.333 15.6667L156.667 15.3333z"/>
<path style="fill:#27a17b; stroke:none;" d="M41 16L42 17L41 16z"/>
<path style="fill:#01ffff; stroke:none;" d="M39 17L40 18L39 17z"/>
<path style="fill:#46714d; stroke:none;" d="M158 17L161 20L158 17z"/>
<path style="fill:#01ffff; stroke:none;" d="M160 17L161 18L160 17M38 19L39 20L38 19M161 19L162 20L161 19z"/>
<path style="fill:#27a17b; stroke:none;" d="M36 20L34 23L36 20z"/>
<path style="fill:#46714d; stroke:none;" d="M162 20L163 21L162 20M163 21L164 22L163 21M164 22L165 23L164 22z"/>
<path style="fill:#01ffff; stroke:none;" d="M31 24L29 27L31 24M169 25L171 27L169 25z"/>
<path style="fill:#27a17b; stroke:none;" d="M28 27L29 28L28 27M27 28L28 29L27 28z"/>
<path style="fill:#46714d; stroke:none;" d="M171 28L173 30L171 28z"/>
<path style="fill:#27a17b; stroke:none;" d="M26 29L27 30L26 29z"/>
<path style="fill:#01ffff; stroke:none;" d="M25 30L24 33L25 30M174 30L176 33L174 30M22 34L21 36L22 34M177 34L178 35L177 34z"/>
<path style="fill:#27a17b; stroke:none;" d="M20 36L21 37L20 36z"/>
<path style="fill:#46714d; stroke:none;" d="M178 36L180 38L178 36z"/>
<path style="fill:#27a17b; stroke:none;" d="M19 37L20 38L19 37z"/>
<path style="fill:#01ffff; stroke:none;" d="M18 38L19 39L18 38M181 38L182 39L181 38M16 40L17 41L16 40M183 40L184 41L183 40z"/>
<path style="fill:#46714d; stroke:none;" d="M182 41L183 42L182 41z"/>
<path style="fill:#01ffff; stroke:none;" d="M183 42L184 43L183 42M185.333 43.6667L185.667 44.3333L185.333 43.6667M14 45L15 46L14 45z"/>
<path style="fill:#47b191; stroke:none;" d="M53 72L87 72L87 86L88 86L86.9722 72.6034L78 71L54 71L54 49L146 49L146 71L112 71C118.916 73.9023 129.522 72.0034 137 72C139.469 71.9989 143.311 72.6244 145.397 70.9722C148.433 68.5672 148.433 51.4328 145.397 49.0278C141.418 45.8763 129.897 48 125 48L74 48C69.2946 48 58.4387 45.9902 54.6034 49.0278C50.5318 52.2525 53 67.1397 53 72z"/>
<path style="fill:#f9fcfb; stroke:none;" d="M54 49L54 71C60.9459 71 81.3412 67.548 86.3966 72.6034C89.2758 75.4826 88 82.2788 88 86C75.5093 86.5363 61.9357 87.8149 50 91.7492C46.5687 92.8803 39.6173 95.272 40.1759 99.9722C40.7187 104.538 47.439 106.167 51 107.329C62.9622 111.232 75.6468 111.439 88 113L88 160L112 160L112 128C112 124.222 110.778 117.702 113.028 114.434C115.503 110.837 122.234 112.076 126 111.576C135.377 110.329 149.013 109.922 156.771 103.867C163.249 98.81 155.884 94.0994 151 92.348C138.784 87.9678 124.892 86.5535 112 86L112 71L146 71L146 49L54 49z"/>
<path style="fill:#46714d; stroke:none;" d="M189 53L190 54L189 53z"/>
<path style="fill:#01ffff; stroke:none;" d="M9 54L8 56L9 54M191 54L192 55L191 54z"/>
<path style="fill:#46714d; stroke:none;" d="M9 55L10 56L9 55M190 55L191 56L190 55z"/>
<path style="fill:#01ffff; stroke:none;" d="M7 56L8 57L7 56M192 56L193 57L192 56z"/>
<path style="fill:#46714d; stroke:none;" d="M8 57L9 58L8 57M191 57L192 58L191 57M7 59L8 60L7 59M192 59L193 60L192 59z"/>
<path style="fill:#01ffff; stroke:none;" d="M5.66667 60.3333L6.33333 60.6667L5.66667 60.3333M193 60L194 61L193 60z"/>
<path style="fill:#46714d; stroke:none;" d="M6 61L7 62L6 61M193 61L194 62L193 61z"/>
<path style="fill:#01ffff; stroke:none;" d="M4 62L5 63L4 62M194.667 62.3333L195.333 62.6667L194.667 62.3333z"/>
<path style="fill:#46714d; stroke:none;" d="M194.333 63.6667L194.667 64.3333L194.333 63.6667z"/>
<path style="fill:#01ffff; stroke:none;" d="M196 65L197 66L196 65z"/>
<path style="fill:#46714d; stroke:none;" d="M196.333 68.6667L196.667 69.3333L196.333 68.6667z"/>
<path style="fill:#01ffff; stroke:none;" d="M1.66667 70.3333L2.33333 70.6667L1.66667 70.3333M197.667 70.3333L198.333 70.6667L197.667 70.3333z"/>
<path style="fill:#27a17b; stroke:none;" d="M1.33333 71.6667L1.66667 72.3333L1.33333 71.6667M198.333 71.6667L198.667 72.3333L198.333 71.6667z"/>
<path style="fill:#01ffff; stroke:none;" d="M0.333333 74.6667L0.666667 75.3333L0.333333 74.6667M199.333 74.6667L199.667 75.3333L199.333 74.6667z"/>
<path style="fill:#27a17b; stroke:none;" d="M0 76L1 77L0 76M199 76L200 77L199 76z"/>
<path style="fill:#01ffff; stroke:none;" d="M198 77L199 78L198 77z"/>
<path style="fill:#47b191; stroke:none;" d="M77 86L77 87L83 87L77 86M117 86L117 87L123 87L117 86M68 87L68 88L72 88L68 87M128 87L128 88L131 88L128 87M62 88L62 89L65 89L62 88M78 88L78 89L85 89L78 88z"/>
<path style="fill:#27a17b; stroke:none;" d="M154 97C140.877 89.3769 126.334 90.6612 112 88L112 105L87 105L87 88C80.7424 89.1617 74.328 89.3296 68 90.0502C64.2878 90.4729 44.1013 93.0081 47.1759 99.6211C49.8844 105.447 66.4449 106.407 72 106.925C91.9678 108.789 113.145 109.361 133 106.08C140.284 104.877 150.369 104.265 154 97z"/>
<path style="fill:#47b191; stroke:none;" d="M87 88L87 105L88 105L87 88M114 88L114 89L122 89L114 88M135 88L135 89L138 89L135 88M56 89L56 90L59 90L56 89M69 89L69 90L73 90L69 89M127 89L127 90L131 90L127 89M140 89L140 90L144 90L140 89M52 90L52 91L55 91L52 90M62 90L62 91L65 91L62 90M134 90L134 91L137 91L134 90M145.667 90.3333L146.333 90.6667L145.667 90.3333M49.6667 91.3333L50.3333 91.6667L49.6667 91.3333M57 91L57 92L60 92L57 91M139 91L139 92L142 92L139 91M148 91L148 92L151 92L148 91M46.6667 92.3333L47.3333 92.6667L46.6667 92.3333M54.6667 92.3333L55.3333 92.6667L54.6667 92.3333M143 92L143 93L146 93L143 92M151.667 92.3333L152.333 92.6667L151.667 92.3333M44.6667 93.3333L45.3333 93.6667L44.6667 93.3333M51.6667 93.3333L52.3333 93.6667L51.6667 93.3333M147.667 93.3333L148.333 93.6667L147.667 93.3333M154 93L155 94L154 93M43 94L44 95L43 94M48.6667 94.3333L49.3333 94.6667L48.6667 94.3333M149.667 94.3333L150.333 94.6667L149.667 94.3333M156 94L157 95L156 94M41 95L42 96L41 95M47 95L48 96L47 95M151.667 95.3333L152.333 95.6667L151.667 95.3333M157 95L158 96L157 95M40 96L41 97L40 96M46 96L47 97L46 96M153 96L154 97L153 96M39.3333 97.6667L39.6667 98.3333L39.3333 97.6667M45 97L45 100L46 100L45 97M159 97L160 98L159 97M160 98L160 101L161 101L160 98M153 99L154 100L153 99M39 100L40 101L39 100M46 100L47 101L46 100M152 100L153 101L152 100M48 101L49 102L48 101M151 101L152 102L151 101M159 101L160 102L159 101M40 102L41 103L40 102M49.6667 102.333L50.3333 102.667L49.6667 102.333M148.667 102.333L149.333 102.667L148.667 102.333M41 103L42 104L41 103M52 103L52 104L55 104L52 103M145 103L145 104L148 104L145 103M157 103L158 104L157 103M43 104L44 105L43 104M55 104L55 105L58 105L55 104M141 104L141 105L145 105L141 104M156 104L157 105L156 104M44.6667 105.333L45.3333 105.667L44.6667 105.333M59 105L59 106L63 106L59 105M136 105L136 106L141 106L136 105M154 105L155 106L154 105M47.6667 106.333L48.3333 106.667L47.6667 106.333M64 106L64 107L69 107L64 106M130 106L130 107L135 107L130 106M151.667 106.333L152.333 106.667L151.667 106.333M49 107L49 108L52 108L49 107M72 107L72 108L78 108L72 107M121 107L121 108L127 108L121 107M148.667 107.333L149.333 107.667L148.667 107.333M52 108L52 109L55 109L52 108M84 108L84 109L115 109L84 108M144 108L144 109L147 109L144 108M56 109L56 110L60 110L56 109M139 109L139 110L143 110L139 109M61 110L61 111L66 111L61 110M134 110L134 111L138 111L134 110M69 111L69 112L73 112L69 111M126 111L126 112L131 112L126 111M79 112L79 113L85 113L79 112M114 112L114 113L121 113L114 112M87 113L87 160L88 160C88 146.735 92.1095 125.177 87 113z"/>
<path style="fill:#46714d; stroke:none;" d="M0 117L0 200L83 200L83 199L65 195L65 196L68 196L68 197L58 194L60 193L60 192L54 192L56 191L56 190L53 191L45 185L46 187L45 187L44 183C39.697 182.743 36.2573 180.162 35 176L31 176L27 169L24 165L23 164L20 161L14 155L16 156L16 155L13 155L5 133L4 133L4 135L3 135L1 127L2 127L2 129L3 129L0 117M199 117L197 129L198 129L198 127L199 127C197.48 132.57 194.955 143.939 189 146C187.472 150.584 184.28 162.07 180 161L180 164L173 169L165 176L156 185L156 184L158 184L158 183L156 186C152.258 185.75 147.941 187.065 147 191L144 190L144 191L146 192L132 197L132 196L135 196L135 195L130 196L132 197L132 198L117 199L117 200L200 200L200 143L199 117z"/>
<path style="fill:#01ffff; stroke:none;" d="M1 122L2 123L1 122z"/>
<path style="fill:#27a17b; stroke:none;" d="M0 123L1 124L0 123M199 123L200 124L199 123z"/>
<path style="fill:#01ffff; stroke:none;" d="M0.333333 124.667L0.666667 125.333L0.333333 124.667M199.333 124.667L199.667 125.333L199.333 124.667z"/>
<path style="fill:#27a17b; stroke:none;" d="M1.33333 127.667L1.66667 128.333L1.33333 127.667M198.333 127.667L198.667 128.333L198.333 127.667z"/>
<path style="fill:#01ffff; stroke:none;" d="M1.66667 129.333L2.33333 129.667L1.66667 129.333M197.667 129.333L198.333 129.667L197.667 129.333z"/>
<path style="fill:#46714d; stroke:none;" d="M3.33333 130.667L3.66667 131.333L3.33333 130.667M196.333 130.667L196.667 131.333L196.333 130.667M195 133L194 137L195 137L195 133z"/>
<path style="fill:#01ffff; stroke:none;" d="M3 134L4 135L3 134z"/>
<path style="fill:#46714d; stroke:none;" d="M5.33333 135.667L5.66667 136.333L5.33333 135.667z"/>
<path style="fill:#01ffff; stroke:none;" d="M4.66667 137.333L5.33333 137.667L4.66667 137.333M195 137L196 138L195 137z"/>
<path style="fill:#46714d; stroke:none;" d="M6 138L7 139L6 138M193 138L194 139L193 138z"/>
<path style="fill:#01ffff; stroke:none;" d="M6 139L7 140L6 139M193.667 139.333L194.333 139.667L193.667 139.333z"/>
<path style="fill:#46714d; stroke:none;" d="M7 140L8 141L7 140M192 140L193 141L192 140M8 142L9 143L8 142M191 142L192 143L191 142z"/>
<path style="fill:#01ffff; stroke:none;" d="M7 143L8 144L7 143M192 143L193 144L192 143z"/>
<path style="fill:#46714d; stroke:none;" d="M9 144L10 145L9 144M190 144L191 145L190 144z"/>
<path style="fill:#01ffff; stroke:none;" d="M191 144L192 145L191 144M8 145L9 146L8 145M190 145L191 146L190 145z"/>
<path style="fill:#46714d; stroke:none;" d="M10 146L11 147L10 146z"/>
<path style="fill:#01ffff; stroke:none;" d="M185 154L186 155L185 154M14.3333 155.667L14.6667 156.333L14.3333 155.667z"/>
<path style="fill:#46714d; stroke:none;" d="M184 155L185 156L184 155z"/>
<path style="fill:#01ffff; stroke:none;" d="M16 157L17 158L16 157z"/>
<path style="fill:#46714d; stroke:none;" d="M183 157L181 160L183 157M17 158L18 159L17 158z"/>
<path style="fill:#01ffff; stroke:none;" d="M16 159L17 160L16 159z"/>
<path style="fill:#47b191; stroke:none;" d="M88 160L88 161L112 161L88 160z"/>
<path style="fill:#01ffff; stroke:none;" d="M18 161L19 162L18 161M181 161L182 162L181 161z"/>
<path style="fill:#46714d; stroke:none;" d="M20 162L22 164L20 162M179 162L180 163L179 162z"/>
<path style="fill:#01ffff; stroke:none;" d="M178 164L177 166L178 164M22 165L23 166L22 165M24 167L26 170L24 167M175 167L174 170L175 167z"/>
<path style="fill:#46714d; stroke:none;" d="M27 170L29 172L27 170M172 170L171 172L172 170z"/>
<path style="fill:#01ffff; stroke:none;" d="M29 173L31 175L29 173M170 173L168 176L170 173z"/>
<path style="fill:#46714d; stroke:none;" d="M35 177L38 180L35 177M164 177L162 180L164 177z"/>
<path style="fill:#01ffff; stroke:none;" d="M38 180L39 181L38 180z"/>
<path style="fill:#46714d; stroke:none;" d="M39 180L40 181L39 180M160 180L161 181L160 180z"/>
<path style="fill:#01ffff; stroke:none;" d="M161 180L162 181L161 180z"/>
<path style="fill:#46714d; stroke:none;" d="M40 181L41 182L40 181M159 181L160 182L159 181M41 182L42 183L41 182M158 182L159 183L158 182z"/>
<path style="fill:#01ffff; stroke:none;" d="M160 182L161 183L160 182M42.6667 184.333L43.3333 184.667L42.6667 184.333M156 184L157 185L156 184M154 186L155 187L154 186M54 191L55 192L54 191z"/>
<path style="fill:#46714d; stroke:none;" d="M56.6667 191.333L57.3333 191.667L56.6667 191.333M140 192L140 193L144 192L140 192z"/>
<path style="fill:#01ffff; stroke:none;" d="M145 191L146 192L145 191M58 193L59 194L58 193z"/>
<path style="fill:#46714d; stroke:none;" d="M60 193L60 194L65 195L65 194L60 193M138 193L139 194L138 193z"/>
<path style="fill:#01ffff; stroke:none;" d="M139.333 193.667L139.667 194.333L139.333 193.667z"/>
<path style="fill:#46714d; stroke:none;" d="M135.667 194.333L136.333 194.667L135.667 194.333z"/>
<path style="fill:#01ffff; stroke:none;" d="M137.333 194.667L137.667 195.333L137.333 194.667M62 195L63 196L62 195M67 196L68 197L67 196M132 196L133 197L132 196z"/>
<path style="fill:#27a17b; stroke:none;" d="M68.6667 197.333L69.3333 197.667L68.6667 197.333z"/>
<path style="fill:#01ffff; stroke:none;" d="M131 197L132 198L131 197z"/>
<path style="fill:#27a17b; stroke:none;" d="M71 198L72 199L71 198z"/>
<path style="fill:#01ffff; stroke:none;" d="M72 198L73 199L72 198z"/>
<path style="fill:#27a17b; stroke:none;" d="M127.667 198.333L128.333 198.667L127.667 198.333z"/>
<path style="fill:#01ffff; stroke:none;" d="M74.6667 199.333L75.3333 199.667L74.6667 199.333z"/>
<path style="fill:#27a17b; stroke:none;" d="M76 199L77 200L76 199M123 199L124 200L123 199z"/>
<path style="fill:#01ffff; stroke:none;" d="M124.667 199.333L125.333 199.667L124.667 199.333z"/>
</svg>
