<?xml version="1.0" standalone="yes"?>
<svg xmlns="http://www.w3.org/2000/svg" width="512" height="512">
<path style="fill:#010101; stroke:none;" d="M0 0L0 512L512 512L512 0L0 0z"/>
<path style="fill:#6815e4; stroke:none;" d="M155 64L156 65L155 64z"/>
<path style="fill:#8109eb; stroke:none;" d="M186 128C194.429 133.955 213.628 148.821 224 148L224 151L228 151L228 150C222.875 145.991 223.972 139.959 224.001 134C224.071 119.369 225 104.687 225 90L231 93C228.861 89.5481 227.149 87.8526 223 88C219.869 82.3332 211.477 79.1947 206 75.9359C188.002 65.2263 158.676 54.4668 141.326 73.1705C129.483 85.9373 130.522 113.393 133.148 129.995C134.791 140.378 159.485 148.979 167.83 153.833C171.402 155.911 176.661 159.712 180.891 157.223C188.634 152.667 184.19 135.602 186 128z"/>
<path style="fill:#300fe1; stroke:none;" d="M184 64L185 65L184 64M152 65L153 66L152 65M187 65L188 66L187 65M150 66L151 67L150 66z"/>
<path style="fill:#6815e4; stroke:none;" d="M188 66L189 67L188 66z"/>
<path style="fill:#300fe1; stroke:none;" d="M189 66L190 67L189 66M146 68L147 69L146 68M193 68L194 69L193 68M145 69L146 70L145 69M195 69L196 70L195 69M143 70L144 71L143 70z"/>
<path style="fill:#6815e4; stroke:none;" d="M144 70L145 71L144 70z"/>
<path style="fill:#300fe1; stroke:none;" d="M197 70L198 71L197 70M142 71L143 72L142 71M199 71L200 72L199 71M141 72L142 73L141 72z"/>
<path style="fill:#6815e4; stroke:none;" d="M200 72L201 73L200 72z"/>
<path style="fill:#300fe1; stroke:none;" d="M140 73L141 74L140 73M203 74L204 75L203 74z"/>
<path style="fill:#6815e4; stroke:none;" d="M204 75L205 76L204 75z"/>
<path style="fill:#300fe1; stroke:none;" d="M205 75L206 76L205 75M138 76L139 77L138 76z"/>
<path style="fill:#6815e4; stroke:none;" d="M208 77L209 78L208 77z"/>
<path style="fill:#300fe1; stroke:none;" d="M137 78L138 79L137 78M210 78L211 79L210 78M136 79L137 80L136 79M212 79L213 80L212 79M135 80L136 81L135 80M213 80L214 81L213 80z"/>
<path style="fill:#6815e4; stroke:none;" d="M135 81L136 82L135 81z"/>
<path style="fill:#300fe1; stroke:none;" d="M214 81L215 82L214 81M134 82L135 83L134 82z"/>
<path style="fill:#6815e4; stroke:none;" d="M216 82L217 83L216 82z"/>
<path style="fill:#300fe1; stroke:none;" d="M222 85L223 86L222 85M223.667 86.3333L224.333 86.6667L223.667 86.3333z"/>
<path style="fill:#6815e4; stroke:none;" d="M223 87L224 88L223 87z"/>
<path style="fill:#300fe1; stroke:none;" d="M228 88L229 89L228 88M229 89L229 90L233 92L229 89z"/>
<path style="fill:#6815e4; stroke:none;" d="M225 90L224 137L226 152L231 152L250 165.181L305 196L305 195L302 192L307 193L307 148L305 134L305 133L301 133C300.261 127.927 288.334 123.772 284 121.269C266.531 111.179 248.095 96.5419 229 90L231 93L225 90z"/>
<path style="fill:#300fe1; stroke:none;" d="M234 92L235 93L234 92M236 93L237 94L236 93z"/>
<path style="fill:#8109eb; stroke:none;" d="M237 94L238 95L237 94z"/>
<path style="fill:#300fe1; stroke:none;" d="M238 94L239 95L238 94M239 95L240 96L239 95z"/>
<path style="fill:#8109eb; stroke:none;" d="M240.667 96.3333L241.333 96.6667L240.667 96.3333z"/>
<path style="fill:#300fe1; stroke:none;" d="M243 97L244 98L243 97M245 98L246 99L245 98z"/>
<path style="fill:#8109eb; stroke:none;" d="M246 99L247 100L246 99z"/>
<path style="fill:#300fe1; stroke:none;" d="M250 101L251 102L250 101M251 102L252 103L251 102M253 103L254 104L253 103M255 104L256 105L255 104M260 107L261 108L260 107M261 108L262 109L261 108M263 109L264 110L263 109M265 110L266 111L265 110M267 111L268 112L267 111M268 112L269 113L268 112M269 113L270 114L269 113M273 114L274 115L273 114M274 115L275 116L274 115M276 116L277 117L276 116M279 118L280 119L279 118M280.667 119.333L281.333 119.667L280.667 119.333M282 120L283 121L282 120M287.667 123.333L288.333 123.667L287.667 123.333M289.667 124.333L290.333 124.667L289.667 124.333M291.667 125.333L292.333 125.667L291.667 125.333M294 126L295 127L294 126z"/>
<path style="fill:#8109eb; stroke:none;" d="M295 127L296 128L295 127z"/>
<path style="fill:#6815e4; stroke:none;" d="M186 128L187 129L186 128z"/>
<path style="fill:#300fe1; stroke:none;" d="M296 128L297 129L296 128M185 129L185 147L186 147L185 129M187 129L188 130L187 129M297.667 129.333L298.333 129.667L297.667 129.333z"/>
<path style="fill:#6815e4; stroke:none;" d="M189 130L190 131L189 130z"/>
<path style="fill:#300fe1; stroke:none;" d="M299.667 130.333L300.333 130.667L299.667 130.333M301 132L301 133L305 133L301 132z"/>
<path style="fill:#6815e4; stroke:none;" d="M193.667 132.333L194.333 132.667L193.667 132.333M133 133L134 134L133 133M195 133L196 134L195 133z"/>
<path style="fill:#300fe1; stroke:none;" d="M303 134C308.224 153.024 307 172.736 307 193L302 192L305 195L305 196L297 192L310 200L308 204C303.074 204.575 296.51 207.589 294 212L302 210L306 209C306 221.389 305.317 233.672 305.015 246C304.769 256.024 306.225 263.788 298 271L298 272L303 271L302 268L305 270L314 262L323 257C331.103 256.137 339.097 249.18 346 245.114C358.086 237.996 373.508 231.688 378.301 217C380.159 211.308 379 203.93 379 198C379 193.216 379.831 187.499 377.911 183C370.86 166.474 347.858 156.917 333 148.77C324.983 144.374 312.321 133.558 303 134M198 135L199 136L198 135M138 136L139 137L138 136M200 136L201 137L200 136z"/>
<path style="fill:#6815e4; stroke:none;" d="M141 138L142 139L141 138M204 138L205 139L204 138M313 138L314 139L313 138z"/>
<path style="fill:#300fe1; stroke:none;" d="M205 139L206 140L205 139z"/>
<path style="fill:#6815e4; stroke:none;" d="M146 141L147 142L146 141M209 141L210 142L209 141z"/>
<path style="fill:#300fe1; stroke:none;" d="M210 142L211 143L210 142z"/>
<path style="fill:#6815e4; stroke:none;" d="M150 143L151 144L150 143z"/>
<path style="fill:#300fe1; stroke:none;" d="M212 143L213 144L212 143M213 144L214 145L213 144M215 145L216 146L215 145M136 147L136 148L139 148L136 147M218 147L219 148L218 147z"/>
<path style="fill:#6815e4; stroke:none;" d="M219 147L220 148L219 147z"/>
<path style="fill:#8109eb; stroke:none;" d="M221 315L225 315L225 314L221 314C221 299.634 222 285.391 222 271C222 263.953 220.873 257.668 227 253L230 250L230 249L220 253C212.153 261.463 195.84 269.061 185 273L185 239C191.823 241.274 201.965 251.678 210 249C215.298 247.234 222.839 239.21 226 240L223 238L224 199L228 200C207.1 184.094 182.248 173.376 159.91 159.713C154.556 156.438 142.034 145.456 135.318 148.608C131.627 150.34 133 157.727 133 161L133 197L133 319L133 350C133 353.375 131.854 359.476 134.028 362.332C138.244 367.87 151.032 357.982 155 355.523C171.377 345.376 188.539 336.558 205 326.535C209.874 323.567 219.657 321.044 221 315z"/>
<path style="fill:#300fe1; stroke:none;" d="M185 148L186 149L185 148M220 148L221 149L220 148z"/>
<path style="fill:#6815e4; stroke:none;" d="M222 150L225 150L224 148L222 150z"/>
<path style="fill:#300fe1; stroke:none;" d="M142 149L143 150L142 149z"/>
<path style="fill:#6815e4; stroke:none;" d="M225 150L226 151L225 150z"/>
<path style="fill:#300fe1; stroke:none;" d="M146 151L147 152L146 151M148 152L149 153L148 152z"/>
<path style="fill:#8109eb; stroke:none;" d="M230.333 152.667L230.667 153.333L230.333 152.667z"/>
<path style="fill:#300fe1; stroke:none;" d="M149.667 153.333L150.333 153.667L149.667 153.333M167 153L168 154L167 153z"/>
<path style="fill:#6815e4; stroke:none;" d="M184 153L185 154L184 153z"/>
<path style="fill:#300fe1; stroke:none;" d="M151 154L152 155L151 154z"/>
<path style="fill:#6815e4; stroke:none;" d="M169 154L170 155L169 154z"/>
<path style="fill:#8109eb; stroke:none;" d="M232 154L233 155L232 154z"/>
<path style="fill:#300fe1; stroke:none;" d="M153 155L154 156L153 155M183 155L184 156L183 155z"/>
<path style="fill:#8109eb; stroke:none;" d="M233 155L234 156L233 155z"/>
<path style="fill:#300fe1; stroke:none;" d="M154 156L155 157L154 156z"/>
<path style="fill:#6815e4; stroke:none;" d="M172 156L173 157L172 156z"/>
<path style="fill:#300fe1; stroke:none;" d="M182 156L183 157L182 156M234 156L235 157L234 156z"/>
<path style="fill:#6815e4; stroke:none;" d="M174 157L175 158L174 157z"/>
<path style="fill:#300fe1; stroke:none;" d="M181 157L182 158L181 157M235 157L236 158L235 157M157 158L158 159L157 158M175 158L176 159L175 158z"/>
<path style="fill:#6815e4; stroke:none;" d="M176 158L177 159L176 158z"/>
<path style="fill:#300fe1; stroke:none;" d="M177 158L178 159L177 158z"/>
<path style="fill:#6815e4; stroke:none;" d="M178 158L179 159L178 158z"/>
<path style="fill:#300fe1; stroke:none;" d="M159 159L160 160L159 159M239.667 159.333L240.333 159.667L239.667 159.333M241 160L242 161L241 160z"/>
<path style="fill:#6815e4; stroke:none;" d="M163 162L164 163L163 162z"/>
<path style="fill:#300fe1; stroke:none;" d="M164 162L165 163L164 162M245 162L246 163L245 162M246.667 163.333L247.333 163.667L246.667 163.333z"/>
<path style="fill:#6815e4; stroke:none;" d="M167 164L168 165L167 164z"/>
<path style="fill:#300fe1; stroke:none;" d="M248 164L249 165L248 164z"/>
<path style="fill:#8109eb; stroke:none;" d="M249 164L250 165L249 164z"/>
<path style="fill:#300fe1; stroke:none;" d="M169.667 165.333L170.333 165.667L169.667 165.333M250 165L251 166L250 165M172 166L173 167L172 166M251 166L252 167L251 166M173 167L174 168L173 167M253 167L254 168L253 167M175 168L176 169L175 168z"/>
<path style="fill:#8109eb; stroke:none;" d="M255 168L256 169L255 168z"/>
<path style="fill:#300fe1; stroke:none;" d="M177 169L178 170L177 169M257 169L258 170L257 169z"/>
<path style="fill:#6815e4; stroke:none;" d="M178 170L179 171L178 170z"/>
<path style="fill:#300fe1; stroke:none;" d="M179 170L180 171L179 170z"/>
<path style="fill:#6815e4; stroke:none;" d="M180 171L181 172L180 171z"/>
<path style="fill:#300fe1; stroke:none;" d="M260 171L261 172L260 171M261 172L262 173L261 172M183 173L184 174L183 173M262 173L263 174L262 173M185 174L186 175L185 174M265 174L266 175L265 174M187 175L188 176L187 175M266.667 175.333L267.333 175.667L266.667 175.333z"/>
<path style="fill:#6815e4; stroke:none;" d="M188 176L189 177L188 176z"/>
<path style="fill:#300fe1; stroke:none;" d="M268.667 176.333L269.333 176.667L268.667 176.333M191 177L192 178L191 177M270.667 177.333L271.333 177.667L270.667 177.333M192 178L193 179L192 178M272 178L273 179L272 178M194 179L195 180L194 179M274 179L275 180L274 179M198 181L199 182L198 181M278 181L279 182L278 181M279 182L280 183L279 182M201 183L202 184L201 183M280 183L281 184L280 183M202 184L203 185L202 184M282 184L283 185L282 184M284.667 185.333L285.333 185.667L284.667 185.333z"/>
<path style="fill:#6815e4; stroke:none;" d="M206 186L207 187L206 186z"/>
<path style="fill:#300fe1; stroke:none;" d="M286 186L287 187L286 186M288 187L289 188L288 187M209 188L210 189L209 188M289.667 188.333L290.333 188.667L289.667 188.333M211.667 189.333L212.333 189.667L211.667 189.333M291.667 189.333L292.333 189.667L291.667 189.333M213 190L214 191L213 190M293.667 190.333L294.333 190.667L293.667 190.333z"/>
<path style="fill:#6815e4; stroke:none;" d="M214 191L215 192L214 191z"/>
<path style="fill:#300fe1; stroke:none;" d="M296 191L297 192L296 191M217 192L218 193L217 192M218 193L219 194L218 193z"/>
<path style="fill:#6815e4; stroke:none;" d="M218.667 194.333L219.333 194.667L218.667 194.333z"/>
<path style="fill:#300fe1; stroke:none;" d="M220 194L221 195L220 194z"/>
<path style="fill:#6815e4; stroke:none;" d="M222 196L223 197L222 196z"/>
<path style="fill:#300fe1; stroke:none;" d="M223 196L224 197L223 196z"/>
<path style="fill:#6815e4; stroke:none;" d="M224 197L227 199L227 198L224 197z"/>
<path style="fill:#300fe1; stroke:none;" d="M225 197L226 198L225 197z"/>
<path style="fill:#6815e4; stroke:none;" d="M307 197L308 198L307 197z"/>
<path style="fill:#300fe1; stroke:none;" d="M227 198L228 199L227 198z"/>
<path style="fill:#6815e4; stroke:none;" d="M224 199L223 238L226 240L227 240L229 236L228 238L229 238L235 233C242.601 232.626 258.118 222.557 251.272 213.519C245.888 206.409 232.353 201.278 224 199z"/>
<path style="fill:#300fe1; stroke:none;" d="M228 199L229 200L228 199M230 200L232 202L230 200z"/>
<path style="fill:#8109eb; stroke:none;" d="M227 201L229 203L227 201M230 201L231 202L230 201z"/>
<path style="fill:#300fe1; stroke:none;" d="M233 202L234 203L233 202z"/>
<path style="fill:#8109eb; stroke:none;" d="M234.667 203.333L235.333 203.667L234.667 203.333z"/>
<path style="fill:#6815e4; stroke:none;" d="M307 203L308 204L307 203z"/>
<path style="fill:#300fe1; stroke:none;" d="M239 205L240 206L239 205z"/>
<path style="fill:#8109eb; stroke:none;" d="M240 206L241 207L240 206z"/>
<path style="fill:#300fe1; stroke:none;" d="M241 206L242 207L241 206z"/>
<path style="fill:#6815e4; stroke:none;" d="M301 206L302 207L301 206z"/>
<path style="fill:#8109eb; stroke:none;" d="M242 207L243 208L242 207z"/>
<path style="fill:#300fe1; stroke:none;" d="M244 208L245 209L244 208z"/>
<path style="fill:#6815e4; stroke:none;" d="M291 212L248 237.38L233 248L230 247L230 250L227 253C220.661 256.197 222 262.791 222 269C222 284.058 221 298.966 221 314L226 315L226 311L227 311C229.525 313.209 232.526 310.022 235.09 308.579C242.691 304.299 250.244 299.728 258 295.755C271.334 288.926 297.069 278.491 304.026 264.575C306.439 259.75 304.886 252.266 305.015 247C305.325 234.34 306 221.722 306 209L302 210L291 212z"/>
<path style="fill:#8109eb; stroke:none;" d="M247 210L248 211L247 210z"/>
<path style="fill:#300fe1; stroke:none;" d="M248 210L249 211L248 210M249 211L250 212L249 211z"/>
<path style="fill:#8109eb; stroke:none;" d="M293 211L294 212L293 211M250 212L251 213L250 212z"/>
<path style="fill:#300fe1; stroke:none;" d="M292 212L293 213L292 212M289.667 213.333L290.333 213.667L289.667 213.333z"/>
<path style="fill:#8109eb; stroke:none;" d="M252 214L253 215L252 214z"/>
<path style="fill:#300fe1; stroke:none;" d="M287.667 214.333L288.333 214.667L287.667 214.333M253.333 215.667L253.667 216.333L253.333 215.667M284 216L285 217L284 216z"/>
<path style="fill:#8109eb; stroke:none;" d="M253.333 217.667L253.667 218.333L253.333 217.667z"/>
<path style="fill:#300fe1; stroke:none;" d="M281 217L282 218L281 217z"/>
<path style="fill:#8109eb; stroke:none;" d="M282 217L283 218L282 217z"/>
<path style="fill:#300fe1; stroke:none;" d="M254 218L255 219L254 218M278 219L279 220L278 219M253.333 220.667L253.667 221.333L253.333 220.667M276 220L277 221L276 220M275 221L276 222L275 221M252 222L253 223L252 222M273.667 222.333L274.333 222.667L273.667 222.333M271.667 223.333L272.333 223.667L271.667 223.333M251 224L252 225L251 224M250 225L251 226L250 225M268 225L269 226L268 225z"/>
<path style="fill:#8109eb; stroke:none;" d="M269 225L270 226L269 225z"/>
<path style="fill:#300fe1; stroke:none;" d="M248 226L249 227L248 226M267 226L268 227L267 226M244.667 228.333L245.333 228.667L244.667 228.333M264 228L265 229L264 228M242.667 229.333L243.333 229.667L242.667 229.333M262 229L263 230L262 229z"/>
<path style="fill:#8109eb; stroke:none;" d="M241 230L242 231L241 230z"/>
<path style="fill:#300fe1; stroke:none;" d="M260 230L261 231L260 230z"/>
<path style="fill:#8109eb; stroke:none;" d="M261 230L262 231L261 230z"/>
<path style="fill:#300fe1; stroke:none;" d="M238 232L239 233L238 232M256 232L257 233L256 232z"/>
<path style="fill:#8109eb; stroke:none;" d="M257 232L258 233L257 232M235 233L236 234L235 233z"/>
<path style="fill:#300fe1; stroke:none;" d="M237 233L238 234L237 233M254 233L255 234L254 233M235 234L236 235L235 234M232 235L233 236L232 235M250 235L251 236L250 235z"/>
<path style="fill:#8109eb; stroke:none;" d="M227 236L227 239L228 239L229 236L227 236z"/>
<path style="fill:#300fe1; stroke:none;" d="M247 238L250 237L247 238M230 237L231 238L230 237z"/>
<path style="fill:#8109eb; stroke:none;" d="M248 237L249 238L248 237z"/>
<path style="fill:#300fe1; stroke:none;" d="M228 238L229 239L228 238M185 239C185 246.358 181.432 268.134 187 273C184.644 263.104 184.644 248.896 187 239L185 239z"/>
<path style="fill:#6815e4; stroke:none;" d="M224 239L225 240L224 239z"/>
<path style="fill:#300fe1; stroke:none;" d="M244 239L245 240L244 239M188.667 240.333L189.333 240.667L188.667 240.333M224 240L225 241L224 240z"/>
<path style="fill:#6815e4; stroke:none;" d="M222 241L223 242L222 241z"/>
<path style="fill:#300fe1; stroke:none;" d="M240 241L241 242L240 241z"/>
<path style="fill:#8109eb; stroke:none;" d="M241 241L242 242L241 241z"/>
<path style="fill:#300fe1; stroke:none;" d="M221 242L222 243L221 242z"/>
<path style="fill:#8109eb; stroke:none;" d="M239 242L240 243L239 242z"/>
<path style="fill:#300fe1; stroke:none;" d="M194 243L195 244L194 243z"/>
<path style="fill:#6815e4; stroke:none;" d="M195 243L196 244L195 243M218 243L219 244L218 243z"/>
<path style="fill:#300fe1; stroke:none;" d="M219 243L220 244L219 243M236.667 243.333L237.333 243.667L236.667 243.333z"/>
<path style="fill:#6815e4; stroke:none;" d="M196 244L197 245L196 244M217 244L218 245L217 244z"/>
<path style="fill:#300fe1; stroke:none;" d="M234 244L235 245L234 244z"/>
<path style="fill:#8109eb; stroke:none;" d="M236 244L237 245L236 244z"/>
<path style="fill:#6815e4; stroke:none;" d="M198 245L199 246L198 245M215 245L216 246L215 245z"/>
<path style="fill:#300fe1; stroke:none;" d="M233 245L234 246L233 245M199 246L200 247L199 246z"/>
<path style="fill:#6815e4; stroke:none;" d="M213 246L214 247L213 246z"/>
<path style="fill:#300fe1; stroke:none;" d="M231 246L232 247L231 246z"/>
<path style="fill:#8109eb; stroke:none;" d="M232.333 246.667L232.667 247.333L232.333 246.667z"/>
<path style="fill:#300fe1; stroke:none;" d="M202 248L203 249L202 248z"/>
<path style="fill:#6815e4; stroke:none;" d="M203 248L204 249L203 248M210 248L211 249L210 248z"/>
<path style="fill:#300fe1; stroke:none;" d="M211 248L212 249L211 248M228 248L229 249L228 248z"/>
<path style="fill:#6815e4; stroke:none;" d="M225 250L226 251L225 250z"/>
<path style="fill:#300fe1; stroke:none;" d="M223 251L224 252L223 251z"/>
<path style="fill:#8109eb; stroke:none;" d="M228 251L229 252L228 251z"/>
<path style="fill:#300fe1; stroke:none;" d="M221 252L222 253L221 252z"/>
<path style="fill:#6815e4; stroke:none;" d="M222 252L223 253L222 252M221 253L222 254L221 253M223 253L224 254L223 253z"/>
<path style="fill:#300fe1; stroke:none;" d="M218 254L217 256L218 254z"/>
<path style="fill:#6815e4; stroke:none;" d="M218 255L219 256L218 255z"/>
<path style="fill:#300fe1; stroke:none;" d="M215 256L216 257L215 256z"/>
<path style="fill:#6815e4; stroke:none;" d="M216 256L217 257L216 256z"/>
<path style="fill:#300fe1; stroke:none;" d="M213.667 257.333L214.333 257.667L213.667 257.333z"/>
<path style="fill:#6815e4; stroke:none;" d="M323 257L324 258L323 257z"/>
<path style="fill:#300fe1; stroke:none;" d="M211 258L212 259L211 258z"/>
<path style="fill:#6815e4; stroke:none;" d="M212 258L213 259L212 258M210 259L211 260L210 259z"/>
<path style="fill:#300fe1; stroke:none;" d="M208 260L209 261L208 260M206 261L207 262L206 261M204 262L205 263L204 262z"/>
<path style="fill:#6815e4; stroke:none;" d="M205 262L206 263L205 262M314 262L315 263L314 262z"/>
<path style="fill:#26b3c1; stroke:none;" d="M311 310L311 312L257.961 342.4L240.618 355.093L240.458 369L241 414C254.229 411.64 269.522 399.681 281 392.695C302.328 379.715 324.636 368.214 346 355.252C354.949 349.822 365.69 345.473 372.236 337.039C395.118 307.553 368.097 272.448 338 262.886C331.929 260.957 323.282 268.398 318 271.025C309.329 275.338 279.261 288.45 293.059 300.522C295.434 302.6 298.27 304.1 301 305.647C304.278 307.505 307.342 309.078 311 310z"/>
<path style="fill:#300fe1; stroke:none;" d="M203 263L204 264L203 263M331 263L332 264L331 263M339 263L340 264L339 263M201 264L202 265L201 264z"/>
<path style="fill:#6815e4; stroke:none;" d="M312 264L313 265L312 264z"/>
<path style="fill:#300fe1; stroke:none;" d="M341 264L342 265L341 264M328 265L329 266L328 265M342 265L343 266L342 265M198 266L199 267L198 266M327 266L328 267L327 266z"/>
<path style="fill:#6815e4; stroke:none;" d="M196 267L197 268L196 267M302.333 268.667L302.667 269.333L302.333 268.667M304 268L305 269L304 268z"/>
<path style="fill:#300fe1; stroke:none;" d="M323 268L324 269L323 268M193 269L194 270L193 269z"/>
<path style="fill:#8109eb; stroke:none;" d="M303 269L304 270L303 269z"/>
<path style="fill:#300fe1; stroke:none;" d="M321 269L322 270L321 269M349 269L350 270L349 269M351 270L352 271L351 270M189 271L190 272L189 271M317 271L318 272L317 271M296.333 272.667L296.667 273.333L296.333 272.667z"/>
<path style="fill:#8109eb; stroke:none;" d="M297 272L298 273L297 272z"/>
<path style="fill:#300fe1; stroke:none;" d="M313 273L314 274L313 273M357 273L358 274L357 273M294 274L295 275L294 274M292.667 275.333L293.333 275.667L292.667 275.333M310 275L311 276L310 275M291 276L292 277L291 276M361 276L362 277L361 276M290 277L291 278L290 277M287 278L288 279L287 278M285 279L286 280L285 279M366 279L367 280L366 279M284 280L285 281L284 280M367 280L368 281L367 280M282 281L283 282L282 281M280 282L281 283L280 282M299 282L300 283L299 282z"/>
<path style="fill:#8109eb; stroke:none;" d="M278 283L279 284L278 283z"/>
<path style="fill:#300fe1; stroke:none;" d="M275 286L278 284L275 286M292 286L293 287L292 286z"/>
<path style="fill:#8109eb; stroke:none;" d="M272 287L273 288L272 287z"/>
<path style="fill:#300fe1; stroke:none;" d="M373 287L374 288L373 287M270 288L271 289L270 288M269 289L270 290L269 289M267 290L268 291L267 290M265 291L266 292L265 291M288.333 291.667L288.667 292.333L288.333 291.667M376 291L377 292L376 291z"/>
<path style="fill:#8109eb; stroke:none;" d="M264 292L265 293L264 292z"/>
<path style="fill:#300fe1; stroke:none;" d="M262 293L263 294L262 293z"/>
<path style="fill:#8109eb; stroke:none;" d="M288 293L289 294L288 293z"/>
<path style="fill:#300fe1; stroke:none;" d="M260.667 294.333L261.333 294.667L260.667 294.333M288.333 294.667L288.667 295.333L288.333 294.667z"/>
<path style="fill:#8109eb; stroke:none;" d="M258 295L259 296L258 295z"/>
<path style="fill:#300fe1; stroke:none;" d="M259 295L260 296L259 295M256 296L257 297L256 296z"/>
<path style="fill:#8109eb; stroke:none;" d="M254 297L255 298L254 297z"/>
<path style="fill:#300fe1; stroke:none;" d="M255 297L256 298L255 297M289 297L290 298L289 297M252 298L253 299L252 298z"/>
<path style="fill:#8109eb; stroke:none;" d="M290 298L291 299L290 298z"/>
<path style="fill:#300fe1; stroke:none;" d="M251 299L252 300L251 299M291 299L292 300L291 299M249.667 300.333L250.333 300.667L249.667 300.333M292 300L293 301L292 300M248 301L249 302L248 301M294 301L295 302L294 301M246 302L247 303L246 302M295 302L296 303L295 302z"/>
<path style="fill:#8109eb; stroke:none;" d="M244.667 303.333L245.333 303.667L244.667 303.333M242 304L243 305L242 304z"/>
<path style="fill:#300fe1; stroke:none;" d="M243 304L244 305L243 304M299 304L300 305L299 304z"/>
<path style="fill:#8109eb; stroke:none;" d="M240 305L241 306L240 305z"/>
<path style="fill:#300fe1; stroke:none;" d="M241 305L242 306L241 305M300 305L301 306L300 305z"/>
<path style="fill:#8109eb; stroke:none;" d="M238 306L239 307L238 306z"/>
<path style="fill:#300fe1; stroke:none;" d="M239 306L240 307L239 306M302 306L303 307L302 306z"/>
<path style="fill:#8109eb; stroke:none;" d="M237 307L238 308L237 307M235 308L236 309L235 308z"/>
<path style="fill:#300fe1; stroke:none;" d="M236 308L237 309L236 308z"/>
<path style="fill:#8109eb; stroke:none;" d="M232.667 309.333L233.333 309.667L232.667 309.333z"/>
<path style="fill:#300fe1; stroke:none;" d="M234 309L235 310L234 309M307.667 309.333L308.333 309.667L307.667 309.333M310.333 310.667L310.667 311.333L310.333 310.667z"/>
<path style="fill:#8109eb; stroke:none;" d="M226 311L226 314L227 314L226 311M230 311L231 312L230 311z"/>
<path style="fill:#300fe1; stroke:none;" d="M229 312L230 313L229 312M309 312L310 313L309 312M227 313L228 314L227 313M307 313L308 314L307 313z"/>
<path style="fill:#6815e4; stroke:none;" d="M221 315L221 316L224 316L221 315z"/>
<path style="fill:#300fe1; stroke:none;" d="M304 315L305 316L304 315M222 316L223 317L222 316z"/>
<path style="fill:#6815e4; stroke:none;" d="M220 317L221 318L220 317z"/>
<path style="fill:#300fe1; stroke:none;" d="M219 318L220 319L219 318M217 319L218 320L217 319M295 320L296 321L295 320M214 321L215 322L214 321M293.667 321.333L294.333 321.667L293.667 321.333M212 322L213 323L212 322M290 323L291 324L290 323z"/>
<path style="fill:#6815e4; stroke:none;" d="M207.667 324.333L208.333 324.667L207.667 324.333z"/>
<path style="fill:#300fe1; stroke:none;" d="M206 325L207 326L206 325M203 327L204 328L203 327z"/>
<path style="fill:#6815e4; stroke:none;" d="M201 328L202 329L201 328z"/>
<path style="fill:#300fe1; stroke:none;" d="M200 329L201 330L200 329M279 329L280 330L279 329M377 329L378 330L377 329M198 330L199 331L198 330M278 330L279 331L278 330M376.333 330.667L376.667 331.333L376.333 330.667M276 331L277 332L276 331M195 332L196 333L195 332z"/>
<path style="fill:#6815e4; stroke:none;" d="M192 333L193 334L192 333z"/>
<path style="fill:#300fe1; stroke:none;" d="M272 333L273 334L272 333M374.333 333.667L374.667 334.333L374.333 333.667M191 334L192 335L191 334M373 335L374 336L373 335M187 336L188 337L187 336M267 336L268 337L267 336M372 336L373 337L372 336M185 337L186 338L185 337z"/>
<path style="fill:#6815e4; stroke:none;" d="M265 337L266 338L265 337z"/>
<path style="fill:#300fe1; stroke:none;" d="M263 338L264 339L263 338z"/>
<path style="fill:#6815e4; stroke:none;" d="M182 339L183 340L182 339z"/>
<path style="fill:#300fe1; stroke:none;" d="M181 340L182 341L181 340z"/>
<path style="fill:#6815e4; stroke:none;" d="M261 340L262 341L261 340z"/>
<path style="fill:#300fe1; stroke:none;" d="M369 340L370 341L369 340M180 341L181 342L180 341M259 341L260 342L259 341M368 341L369 342L368 341M177 342L178 343L177 342M257 342L258 343L257 342M255 343L256 344L255 343z"/>
<path style="fill:#6815e4; stroke:none;" d="M256 343L257 344L256 343z"/>
<path style="fill:#300fe1; stroke:none;" d="M174 344L175 345L174 344M253.667 344.333L254.333 344.667L253.667 344.333M363.667 344.333L364.333 344.667L363.667 344.333M172 345L173 346L172 345M252 345L253 346L252 345M362 345L363 346L362 345M170 346L171 347L170 346M250 346L251 347L250 346z"/>
<path style="fill:#6815e4; stroke:none;" d="M251 346L252 347L251 346z"/>
<path style="fill:#300fe1; stroke:none;" d="M168 347L169 348L168 347M249 347L250 348L249 347M166 348L167 349L166 348M247 348L248 349L247 348M357 348L358 349L357 348z"/>
<path style="fill:#6815e4; stroke:none;" d="M164 349L165 350L164 349z"/>
<path style="fill:#300fe1; stroke:none;" d="M245 349L246 350L245 349z"/>
<path style="fill:#6815e4; stroke:none;" d="M246 349L247 350L246 349z"/>
<path style="fill:#300fe1; stroke:none;" d="M243.667 350.333L244.333 350.667L243.667 350.333M353 350L354 351L353 350M241 351L242 352L241 351z"/>
<path style="fill:#6815e4; stroke:none;" d="M242.667 351.333L243.333 351.667L242.667 351.333z"/>
<path style="fill:#300fe1; stroke:none;" d="M352 351L353 352L352 351M160 352L161 353L160 352z"/>
<path style="fill:#6815e4; stroke:none;" d="M241 352L242 353L241 352z"/>
<path style="fill:#300fe1; stroke:none;" d="M157.667 353.333L158.333 353.667L157.667 353.333z"/>
<path style="fill:#6815e4; stroke:none;" d="M245 414L245 413L241 414L241 353C220.715 358.127 205.486 378.312 185 383C185.004 376.398 189.639 352.145 176.999 353.793C172.944 354.322 168.527 357.892 165 359.86C162.13 361.462 158.02 363.01 155.938 365.637C152.591 369.862 153.992 377.978 154 383C154.025 398.274 154.927 413.658 155.001 429C155.021 433.269 154.231 446.222 159.148 447.682C180.72 454.086 199.913 440.113 217 429.612C226.101 424.019 235.795 419.424 245 414z"/>
<path style="fill:#300fe1; stroke:none;" d="M177.667 353.333L178.333 353.667L177.667 353.333M180 353L181 354L180 353M238 353L239 354L238 353M349 353L350 354L349 353M156 354L157 355L156 354z"/>
<path style="fill:#8109eb; stroke:none;" d="M174 354L175 355L174 354z"/>
<path style="fill:#300fe1; stroke:none;" d="M181 354L182 355L181 354M347 354L348 355L347 354M155 355L156 356L155 355M172 355L173 356L172 355M182 355L183 356L182 355M345 355L346 356L345 355M153 356L154 357L153 356M170 356L171 357L170 356z"/>
<path style="fill:#8109eb; stroke:none;" d="M171 356L172 357L171 356z"/>
<path style="fill:#300fe1; stroke:none;" d="M343 356L344 357L343 356z"/>
<path style="fill:#6815e4; stroke:none;" d="M151 357L152 358L151 357z"/>
<path style="fill:#300fe1; stroke:none;" d="M169 357L170 358L169 357M184 357L185 358L184 357M231 357L232 358L231 357M342 357L343 358L342 357M150 358L151 359L150 358M230 358L231 359L230 358M341 358L342 359L341 358M148 359L149 360L148 359M339 359L340 360L339 359M146 360L147 361L146 360M185 360L186 361L185 360M226 360L227 361L226 360M337 360L338 361L337 360z"/>
<path style="fill:#6815e4; stroke:none;" d="M144 361L145 362L144 361z"/>
<path style="fill:#300fe1; stroke:none;" d="M145 361L146 362L145 361M162 361L163 362L162 361M224 361L225 362L224 361M335 361L336 362L335 361M142.667 362.333L143.333 362.667L142.667 362.333z"/>
<path style="fill:#8109eb; stroke:none;" d="M160 362L161 363L160 362z"/>
<path style="fill:#300fe1; stroke:none;" d="M222.667 362.333L223.333 362.667L222.667 362.333M333 362L334 363L333 362M134 363L135 364L134 363z"/>
<path style="fill:#6815e4; stroke:none;" d="M140 363L141 364L140 363z"/>
<path style="fill:#300fe1; stroke:none;" d="M141 363L142 364L141 363M158 363L159 364L158 363M331 363L332 364L331 363M135 364L136 365L135 364z"/>
<path style="fill:#6815e4; stroke:none;" d="M136 364L137 365L136 364z"/>
<path style="fill:#300fe1; stroke:none;" d="M330 364L331 365L330 364M154 365L155 366L154 365M327.667 365.333L328.333 365.667L327.667 365.333z"/>
<path style="fill:#8109eb; stroke:none;" d="M157 448L155 403L155 366C149 368.487 137.404 373.43 134.028 379.21C131.082 384.253 133 394.302 133 400C133 419.786 132.452 442.738 157 448z"/>
<path style="fill:#300fe1; stroke:none;" d="M185 366L186 367L185 366z"/>
<path style="fill:#8109eb; stroke:none;" d="M215 366L216 367L215 366z"/>
<path style="fill:#300fe1; stroke:none;" d="M326 366L327 367L326 366z"/>
<path style="fill:#6815e4; stroke:none;" d="M153 367L154 368L153 367M150 368L151 369L150 368z"/>
<path style="fill:#300fe1; stroke:none;" d="M212 368L213 369L212 368M323 368L324 369L323 368M211 369L212 370L211 369M321 369L322 370L321 369z"/>
<path style="fill:#8109eb; stroke:none;" d="M209 370L210 371L209 370z"/>
<path style="fill:#300fe1; stroke:none;" d="M319 370L320 371L319 370M144 371L145 372L144 371M205 372L206 373L205 372M185 373L185 383L186 383L185 373M204 373L205 374L204 373z"/>
<path style="fill:#8109eb; stroke:none;" d="M313 373L314 374L313 373z"/>
<path style="fill:#300fe1; stroke:none;" d="M314 373L315 374L314 373M202 374L203 375L202 374M312 374L313 375L312 374M310 375L311 376L310 375M199 376L200 377L199 376M308 376L309 377L308 376M307 377L308 378L307 377M195 378L196 379L195 378M193 379L194 380L193 379M304 379L305 380L304 379z"/>
<path style="fill:#8109eb; stroke:none;" d="M191 380L192 381L191 380z"/>
<path style="fill:#300fe1; stroke:none;" d="M302 380L303 381L302 380M189 381L190 382L189 381M300 381L301 382L300 381M187.667 382.333L188.333 382.667L187.667 382.333M298 382L299 383L298 382M297 383L298 384L297 383M296 384L297 385L296 384M292 386L293 387L292 386M284 390L285 391L284 390M282 391L283 392L282 391M281 392L282 393L281 392M279 393L280 394L279 393M276 395L277 396L276 395M274.667 396.333L275.333 396.667L274.667 396.333M273 397L274 398L273 397M271 398L272 399L271 398M268.667 399.333L269.333 399.667L268.667 399.333M267 400L268 401L267 400M265 401L266 402L265 401M263 402L264 403L263 402M261.667 403.333L262.333 403.667L261.667 403.333M260 404L261 405L260 404M259 405L260 406L259 405z"/>
<path style="fill:#6815e4; stroke:none;" d="M256 406L257 407L256 406z"/>
<path style="fill:#300fe1; stroke:none;" d="M255 407L256 408L255 407z"/>
<path style="fill:#6815e4; stroke:none;" d="M252 408L253 409L252 408z"/>
<path style="fill:#300fe1; stroke:none;" d="M254 408L255 409L254 408M251.667 409.333L252.333 409.667L251.667 409.333M250 410L251 411L250 410z"/>
<path style="fill:#6815e4; stroke:none;" d="M248 411L249 412L248 411M246 412L247 413L246 412z"/>
<path style="fill:#300fe1; stroke:none;" d="M245.667 413.333L246.333 413.667L245.667 413.333M244 414L245 415L244 414M242 415L243 416L242 415M240 416L241 417L240 416M237 418L238 419L237 418M234 419L235 420L234 419M232 420L233 421L232 420M228 423L229 424L228 423M223.667 425.333L224.333 425.667L223.667 425.333M222 426L223 427L222 426M133 427L134 428L133 427M220.667 427.333L221.333 427.667L220.667 427.333M218.667 428.333L219.333 428.667L218.667 428.333M134 429L135 430L134 429M217 429L218 430L217 429M215 430L216 431L215 430M214 431L215 432L214 431M212 432L213 433L212 432M211 433L212 434L211 433M137 434L138 435L137 434M209 434L210 435L209 434z"/>
<path style="fill:#6815e4; stroke:none;" d="M138 435L139 436L138 435z"/>
<path style="fill:#300fe1; stroke:none;" d="M207 435L208 436L207 435z"/>
<path style="fill:#6815e4; stroke:none;" d="M139 436L140 437L139 436z"/>
<path style="fill:#300fe1; stroke:none;" d="M139 437L140 438L139 437M140 438L141 439L140 438z"/>
<path style="fill:#6815e4; stroke:none;" d="M141 439L142 440L141 439z"/>
<path style="fill:#300fe1; stroke:none;" d="M142 440L143 441L142 440M199 440L200 441L199 440z"/>
<path style="fill:#6815e4; stroke:none;" d="M145 442L146 443L145 442z"/>
<path style="fill:#300fe1; stroke:none;" d="M146 443L147 444L146 443M151 446L152 447L151 446z"/>
<path style="fill:#6815e4; stroke:none;" d="M152 446L153 447L152 446z"/>
<path style="fill:#300fe1; stroke:none;" d="M186.667 446.333L187.333 446.667L186.667 446.333z"/>
</svg>
